<svg width="742" height="742" viewBox="0 0 742 742" fill="none" xmlns="http://www.w3.org/2000/svg">
<path d="M212 44.52C186.913 14.84 155.113 0 116.6 0C84.4467 0 57.5934 11.9444 35.3334 36.1951C13.0734 60.4459 1.41336 87.9542 2.67029e-05 119.444C2.67029e-05 144.78 11.66 174.099 35.3334 208.484C59.0067 242.869 81.9733 271.463 104.94 294.99C127.907 318.155 163.593 352.54 212 398.146C261.113 352.54 297.153 318.155 320.12 294.99C343.087 271.825 366.407 242.869 389.727 208.484C413.047 174.099 424 144.78 424 119.444C424 86.5063 412.693 58.998 389.727 36.1951C366.76 13.3922 339.2 1.4478 307.047 0C269.24 0 237.793 14.84 212 44.52ZM2.67029e-05 615.317V651.512L282.667 742L530 671.781V723.902H742V325.756H460.393L242.74 409.005C203.167 424.207 176.667 463.298 176.667 506.732H106C47.3467 506.732 2.67029e-05 555.233 2.67029e-05 615.317ZM600.667 651.512V398.146H671.333V651.512H600.667ZM74.2 599.753C79.8534 587.809 92.22 579.122 106 579.122H295.033C314.113 579.122 332.84 576.226 350.86 570.073L434.953 541.479L412.693 472.708L328.6 501.302C318 504.922 247.333 506.732 247.333 506.732C247.333 493.34 255.46 481.395 267.473 476.69L473.113 398.146H530V597.22L283.727 666.352L74.2 599.753Z" fill="white"/>
</svg>
