<svg width="450" height="89" viewBox="0 0 450 89" fill="none" xmlns="http://www.w3.org/2000/svg">
<path d="M3.834 69L2.982 63.107L7.455 62.184V26.4L3.053 25.903V19.939H34.79L36.139 34.139H31.098L28.116 26.968H16.046V40.387H26.98V47.345H16.046V61.9L27.974 63.675L27.477 69H3.834ZM40.1494 69L39.1554 64.669L43.4154 63.533V40.387L39.7944 40.6L39.0134 35.985L48.4564 34.281L50.7284 37.831C51.7224 36.695 52.8584 35.8193 54.1364 35.204C55.4617 34.5887 56.7397 34.281 57.9704 34.281C60.0531 34.281 61.8991 34.778 63.5084 35.772C65.1651 36.7187 66.3247 38.186 66.9874 40.174L58.9644 44.363L56.7634 40.884C56.1481 40.884 55.4144 41.1207 54.5624 41.594C53.7104 42.0673 52.9531 42.872 52.2904 44.008C51.6751 45.0967 51.3674 46.564 51.3674 48.41V62.397L60.1714 64.669L60.2424 69H40.1494ZM84.8095 69.284C82.0168 69.284 79.3898 68.645 76.9285 67.367C74.5145 66.0417 72.5502 64.101 71.0355 61.545C69.5682 58.989 68.8345 55.8413 68.8345 52.102C68.8345 48.0787 69.5918 44.7653 71.1065 42.162C72.6212 39.5113 74.5855 37.547 76.9995 36.269C79.4135 34.9437 81.9222 34.281 84.5255 34.281C86.5135 34.281 88.4068 34.636 90.2055 35.346C92.0042 36.0087 93.4715 37.0737 94.6075 38.541C95.7908 39.961 96.3825 41.7597 96.3825 43.937C96.3825 46.0197 95.9328 47.771 95.0335 49.191C94.1815 50.611 92.9745 51.7707 91.4125 52.67C89.8978 53.5693 88.1702 54.232 86.2295 54.658C84.3362 55.0367 82.3482 55.2023 80.2655 55.155L77.1415 55.084C77.4255 57.3087 78.2538 59.1783 79.6265 60.693C80.9992 62.2077 83.1528 62.965 86.0875 62.965C88.1702 62.965 89.8742 62.5863 91.1995 61.829C92.5722 61.0717 93.6845 60.2907 94.5365 59.486L96.1695 65.237C95.6488 65.8523 94.8442 66.4677 93.7555 67.083C92.6668 67.6983 91.3652 68.219 89.8505 68.645C88.3358 69.071 86.6555 69.284 84.8095 69.284ZM77.1415 49.404L79.3425 49.475C80.2892 49.5223 81.2832 49.475 82.3245 49.333C83.3658 49.1437 84.3362 48.8597 85.2355 48.481C86.1822 48.1023 86.9158 47.558 87.4365 46.848C88.0045 46.138 88.2885 45.2387 88.2885 44.15C88.2885 42.9667 87.9335 42.091 87.2235 41.523C86.5135 40.9077 85.6378 40.6 84.5965 40.6C83.3185 40.6 82.1352 41.0023 81.0465 41.807C79.9578 42.6117 79.0585 43.6767 78.3485 45.002C77.6858 46.3273 77.2835 47.7947 77.1415 49.404ZM116.912 69.284C114.119 69.284 111.492 68.645 109.031 67.367C106.617 66.0417 104.653 64.101 103.138 61.545C101.671 58.989 100.937 55.8413 100.937 52.102C100.937 48.0787 101.694 44.7653 103.209 42.162C104.724 39.5113 106.688 37.547 109.102 36.269C111.516 34.9437 114.025 34.281 116.628 34.281C118.616 34.281 120.509 34.636 122.308 35.346C124.107 36.0087 125.574 37.0737 126.71 38.541C127.893 39.961 128.485 41.7597 128.485 43.937C128.485 46.0197 128.035 47.771 127.136 49.191C126.284 50.611 125.077 51.7707 123.515 52.67C122 53.5693 120.273 54.232 118.332 54.658C116.439 55.0367 114.451 55.2023 112.368 55.155L109.244 55.084C109.528 57.3087 110.356 59.1783 111.729 60.693C113.102 62.2077 115.255 62.965 118.19 62.965C120.273 62.965 121.977 62.5863 123.302 61.829C124.675 61.0717 125.787 60.2907 126.639 59.486L128.272 65.237C127.751 65.8523 126.947 66.4677 125.858 67.083C124.769 67.6983 123.468 68.219 121.953 68.645C120.438 69.071 118.758 69.284 116.912 69.284ZM109.244 49.404L111.445 49.475C112.392 49.5223 113.386 49.475 114.427 49.333C115.468 49.1437 116.439 48.8597 117.338 48.481C118.285 48.1023 119.018 47.558 119.539 46.848C120.107 46.138 120.391 45.2387 120.391 44.15C120.391 42.9667 120.036 42.091 119.326 41.523C118.616 40.9077 117.74 40.6 116.699 40.6C115.421 40.6 114.238 41.0023 113.149 41.807C112.06 42.6117 111.161 43.6767 110.451 45.002C109.788 46.3273 109.386 47.7947 109.244 49.404ZM148.447 69.284C146.506 69.284 144.613 68.9527 142.767 68.29C140.921 67.58 139.264 66.5387 137.797 65.166C136.377 63.746 135.217 61.9947 134.318 59.912C133.466 57.782 133.04 55.297 133.04 52.457C133.04 49.0963 133.466 46.2563 134.318 43.937C135.217 41.6177 136.4 39.748 137.868 38.328C139.335 36.908 140.968 35.8903 142.767 35.275C144.613 34.6123 146.482 34.281 148.376 34.281C150.316 34.281 151.949 34.5177 153.275 34.991C154.647 35.4643 155.783 36.056 156.683 36.766C157.629 37.4287 158.339 38.0677 158.813 38.683C159.333 39.2983 159.688 39.748 159.878 40.032L152.139 44.647L148.944 40.529H148.021C146.979 40.529 146.033 40.813 145.181 41.381C144.329 41.949 143.595 42.7773 142.98 43.866C142.412 44.9073 141.962 46.138 141.631 47.558C141.347 48.978 141.205 50.5163 141.205 52.173C141.205 54.0663 141.489 55.8413 142.057 57.498C142.625 59.1073 143.524 60.4327 144.755 61.474C146.033 62.468 147.713 62.965 149.796 62.965C151.121 62.965 152.281 62.7757 153.275 62.397C154.269 62.0183 155.121 61.5923 155.831 61.119C156.588 60.5983 157.203 60.1487 157.677 59.77L159.381 65.521C158.103 66.799 156.493 67.7457 154.553 68.361C152.659 68.9763 150.624 69.284 148.447 69.284ZM171.149 88.454C170.203 88.454 168.925 88.2173 167.315 87.744C165.753 87.318 164.286 86.4897 162.913 85.259L166.463 79.721C166.937 80.005 167.576 80.4783 168.38 81.141C169.232 81.851 169.99 82.206 170.652 82.206C171.268 82.206 171.788 82.0167 172.214 81.638C172.64 81.3067 173.043 80.786 173.421 80.076C173.8 79.4133 174.179 78.585 174.557 77.591L176.119 73.189L164.333 39.89H161.635L161.067 35.062L171.149 34.281L180.45 61.261L188.118 39.89H184.994L184.426 34.991L194.224 34.281L195.573 36.837C195.337 37.4523 194.911 38.5883 194.295 40.245C193.727 41.9017 193.017 43.9133 192.165 46.28C191.361 48.5993 190.485 51.108 189.538 53.806C188.639 56.504 187.692 59.2257 186.698 61.971C185.752 64.669 184.829 67.2487 183.929 69.71C183.03 72.2187 182.249 74.396 181.586 76.242C180.924 78.1353 180.403 79.579 180.024 80.573C179.125 82.7977 178.155 84.478 177.113 85.614C176.072 86.75 175.031 87.5073 173.989 87.886C172.948 88.2647 172.001 88.454 171.149 88.454ZM213.553 69.284C211.612 69.284 209.719 68.9527 207.873 68.29C206.027 67.58 204.37 66.5387 202.903 65.166C201.483 63.746 200.323 61.9947 199.424 59.912C198.572 57.782 198.146 55.297 198.146 52.457C198.146 49.0963 198.572 46.2563 199.424 43.937C200.323 41.6177 201.507 39.748 202.974 38.328C204.441 36.908 206.074 35.8903 207.873 35.275C209.719 34.6123 211.589 34.281 213.482 34.281C215.423 34.281 217.056 34.5177 218.381 34.991C219.754 35.4643 220.89 36.056 221.789 36.766C222.736 37.4287 223.446 38.0677 223.919 38.683C224.44 39.2983 224.795 39.748 224.984 40.032L217.245 44.647L214.05 40.529H213.127C212.086 40.529 211.139 40.813 210.287 41.381C209.435 41.949 208.701 42.7773 208.086 43.866C207.518 44.9073 207.068 46.138 206.737 47.558C206.453 48.978 206.311 50.5163 206.311 52.173C206.311 54.0663 206.595 55.8413 207.163 57.498C207.731 59.1073 208.63 60.4327 209.861 61.474C211.139 62.468 212.819 62.965 214.902 62.965C216.227 62.965 217.387 62.7757 218.381 62.397C219.375 62.0183 220.227 61.5923 220.937 61.119C221.694 60.5983 222.31 60.1487 222.783 59.77L224.487 65.521C223.209 66.799 221.6 67.7457 219.659 68.361C217.766 68.9763 215.73 69.284 213.553 69.284ZM228.517 69L227.807 64.74L231.925 63.746V22.85H228.162L227.381 18.235L237.392 16.815L239.806 19.3V63.604L244.421 64.74V69H228.517ZM248.918 69L248.208 64.669L252.184 63.746V40.529L248.563 40.6L247.782 35.914L257.793 34.21L260.136 36.695V63.888L264.112 64.669V69H248.918ZM256.018 31.228C254.835 31.228 253.817 30.802 252.965 29.95C252.161 29.098 251.758 28.104 251.758 26.968C251.758 25.7847 252.161 24.7907 252.965 23.986C253.817 23.134 254.835 22.708 256.018 22.708C257.202 22.708 258.196 23.134 259 23.986C259.852 24.7907 260.278 25.7847 260.278 26.968C260.278 28.104 259.852 29.098 259 29.95C258.196 30.802 257.202 31.228 256.018 31.228ZM268.956 69L268.246 64.669L272.222 63.746V40.529H268.601L267.82 35.914L277.76 34.21L280.103 36.837C281.097 36.1743 282.352 35.5827 283.866 35.062C285.381 34.5413 286.919 34.281 288.481 34.281C290.469 34.281 292.268 34.636 293.877 35.346C295.534 36.0087 296.836 37.05 297.782 38.47C298.776 39.8427 299.273 41.6177 299.273 43.795V63.959L303.249 64.669L303.178 69H287.7L287.629 64.669L291.321 63.888V45.57C291.321 43.9133 290.895 42.7063 290.043 41.949C289.239 41.1443 288.103 40.742 286.635 40.742C285.263 40.742 283.937 41.0733 282.659 41.736C281.429 42.3987 280.6 42.9667 280.174 43.44V63.888L284.292 64.74L284.221 69H268.956ZM319.65 88.241C316.952 88.241 314.561 87.7677 312.479 86.821C310.396 85.9217 308.787 84.6673 307.651 83.058C306.515 81.4487 305.947 79.6027 305.947 77.52C305.947 75.248 306.491 73.3547 307.58 71.84C308.716 70.3727 310.041 69.1893 311.556 68.29C311.035 67.722 310.609 67.0593 310.278 66.302C309.946 65.5447 309.781 64.669 309.781 63.675C309.781 62.4917 310.017 61.4267 310.491 60.48C311.011 59.486 311.65 58.634 312.408 57.924C310.798 56.8827 309.473 55.51 308.432 53.806C307.39 52.0547 306.87 49.972 306.87 47.558C306.87 44.718 307.532 42.3277 308.858 40.387C310.23 38.399 311.982 36.8843 314.112 35.843C316.242 34.8017 318.466 34.281 320.786 34.281C322.442 34.281 324.052 34.5413 325.614 35.062C327.176 35.5827 328.596 36.34 329.874 37.334L337.4 33.5L338.962 33.713L339.743 40.387L333.211 41.168C333.684 42.0673 334.063 43.0613 334.347 44.15C334.631 45.1913 334.773 46.3273 334.773 47.558C334.773 50.3033 334.086 52.6227 332.714 54.516C331.388 56.4093 329.661 57.853 327.531 58.847C325.448 59.7937 323.2 60.267 320.786 60.267C320.407 60.267 320.028 60.267 319.65 60.267C319.318 60.267 318.987 60.2197 318.656 60.125L317.307 62.113L317.52 63.178L324.762 64.74C327.176 65.2607 329.211 65.9707 330.868 66.87C332.572 67.7693 333.85 68.858 334.702 70.136C335.554 71.4613 335.98 73.047 335.98 74.893C335.98 77.733 335.222 80.147 333.708 82.135C332.24 84.123 330.276 85.6377 327.815 86.679C325.353 87.7203 322.632 88.241 319.65 88.241ZM321.354 80.36C322.726 80.36 324.028 80.1707 325.259 79.792C326.489 79.4607 327.507 78.9637 328.312 78.301C329.164 77.6383 329.59 76.881 329.59 76.029C329.59 75.177 329.187 74.5143 328.383 74.041C327.578 73.615 326.513 73.2363 325.188 72.905C323.91 72.621 322.49 72.337 320.928 72.053C319.413 71.769 317.946 71.414 316.526 70.988C315.39 71.6033 314.538 72.3133 313.97 73.118C313.449 73.9227 313.189 74.7983 313.189 75.745C313.189 76.5023 313.473 77.236 314.041 77.946C314.609 78.656 315.484 79.224 316.668 79.65C317.851 80.1233 319.413 80.36 321.354 80.36ZM320.786 54.019C322.774 54.019 324.241 53.3563 325.188 52.031C326.134 50.6583 326.608 49.049 326.608 47.203C326.608 45.4517 326.134 43.9133 325.188 42.588C324.241 41.2153 322.774 40.529 320.786 40.529C318.845 40.529 317.401 41.2153 316.455 42.588C315.508 43.9133 315.035 45.4517 315.035 47.203C315.035 49.049 315.508 50.6583 316.455 52.031C317.401 53.3563 318.845 54.019 320.786 54.019ZM346.3 69.284C345.022 69.284 343.933 68.8343 343.034 67.935C342.134 67.0357 341.685 65.947 341.685 64.669C341.685 63.391 342.134 62.326 343.034 61.474C343.933 60.5747 345.022 60.125 346.3 60.125C347.578 60.125 348.643 60.5747 349.495 61.474C350.394 62.326 350.844 63.391 350.844 64.669C350.844 65.947 350.394 67.0357 349.495 67.935C348.643 68.8343 347.578 69.284 346.3 69.284Z" fill="#E75A7C"/>
<path d="M427.714 10.56C430.351 7.52 433.694 6 437.743 6C441.123 6 443.946 7.22341 446.286 9.70732C448.626 12.1912 449.851 15.0088 450 18.2341C450 20.8293 448.774 23.8322 446.286 27.3541C443.797 30.8761 441.383 33.8049 438.969 36.2146C436.554 38.5873 432.803 42.1093 427.714 46.7805C422.551 42.1093 418.763 38.5873 416.349 36.2146C413.934 33.842 411.483 30.8761 409.031 27.3541C406.58 23.8322 405.429 20.8293 405.429 18.2341C405.429 14.8605 406.617 12.0429 409.031 9.70732C411.446 7.37171 414.343 6.14829 417.723 6C421.697 6 425.003 7.52 427.714 10.56ZM450 69.0244V72.7317L420.286 82L394.286 74.8078V80.1463H372V39.3659H401.603L424.483 47.8927C428.643 49.4498 431.429 53.4537 431.429 57.9024H438.857C445.023 57.9024 450 62.8702 450 69.0244ZM386.857 72.7317V46.7805H379.429V72.7317H386.857ZM442.2 67.4302C441.606 66.2068 440.306 65.3171 438.857 65.3171H418.986C416.98 65.3171 415.011 65.0205 413.117 64.3902L404.277 61.4615L406.617 54.4176L415.457 57.3463C416.571 57.7171 424 57.9024 424 57.9024C424 56.5307 423.146 55.3073 421.883 54.8254L400.266 46.7805H394.286V67.1707L420.174 74.2517L442.2 67.4302Z" fill="#E75A7C"/>
</svg>
