<svg xmlns="http://www.w3.org/2000/svg" class="fc-logo-svg" data-name="Layer 1" viewBox="0 0 184 86"><path fill="#fff" d="M0 0h184v86H0z"/><path fill="#284e36" d="M54.33 49.7c0 3.61 2.32 7.64 7.25 7.64a6.86 6.86 0 0 0 6.68-4.27L65.95 52a4.56 4.56 0 0 1-4.27 2.8c-2.56 0-4.33-2.08-4.33-5.11 0-2.86 1.69-4.81 4.21-4.81a3.56 3.56 0 0 1 3.76 3.22h2.53v-5.38h-2.54v1a6.1 6.1 0 0 0-4-1.38 7.18 7.18 0 0 0-6.98 7.36ZM76.33 56.66l-1.71 4.18h-2.8v2.46h4.75l7.04-18.11h2.11v-2.47h-6.89v2.47h1.9l-3.01 7.85-3.07-7.85h1.68v-2.47h-7.04v2.47h2.38l4.66 11.47zM93.11 54.79c-2.56 0-4.33-2.08-4.33-5.11 0-2.86 1.69-4.81 4.21-4.81a3.56 3.56 0 0 1 3.76 3.22h2.53v-5.37h-2.53v1a6.1 6.1 0 0 0-4-1.38 7.18 7.18 0 0 0-7 7.4c0 3.61 2.32 7.64 7.25 7.64a6.86 6.86 0 0 0 6.68-4.27L97.39 52a4.56 4.56 0 0 1-4.28 2.79ZM106.35 36.5H101v2.46h2.53v15.5h-2.59v2.46h7.61v-2.46h-2.2V36.5zM116.16 42.3a7.47 7.47 0 0 0-7.46 7.52c0 4.39 3.31 7.52 7.91 7.52a8.2 8.2 0 0 0 7.13-3.7l-2.47-1.08a5.54 5.54 0 0 1-4.6 2.32 4.68 4.68 0 0 1-4.87-4.36h11.94c0-5.21-3.64-8.22-7.58-8.22Zm-4.27 6.17a4.37 4.37 0 0 1 4.33-3.91 4.84 4.84 0 0 1 4.66 3.91h-9ZM86.77 77.24c-4.54 4.38-9.89 6.41-16.22 5.5a32.65 32.65 0 0 1-14.47-6.32c-3-2.15-5.76-4.59-8.63-6.89l.3-.48c.87.24 1.73.51 2.6.72 1.65.38 2.19-.77 2.65-1.93.53-1.38-.79-1.33-1.45-1.55-2.66-.89-5.33-1.74-8-2.42-1-.26-2.75-.42-3.15.13a5.66 5.66 0 0 0-.74 3.7 38.76 38.76 0 0 0 1.24 5.5c.53 2 1.09 4.08 1.71 6.4 3.52-2.5.38-5.52 1.26-8.15l1.13.94c2.73 2.25 5.37 4.63 8.22 6.73A37.51 37.51 0 0 0 69.4 86h3.67c.65-.14 1.31-.31 2-.43 5.05-.92 11.22-5.4 12.73-9.4-.42.3-.68.73-1.03 1.07Z"/><path fill="#34b233" d="M4.9 45.19h2.41v-2.47H4.9V39.9c0-1 .39-1.53 1.08-1.53s1 .45 1.08 1.38l2.47-.39a3.5 3.5 0 0 0-3.67-3.28c-2 0-3.79 1.26-3.79 4.09v2.56H0v2.47h2.08v9.27h-2v2.47h7.56v-2.48H4.9v-9.27Z"/><path fill="#34b233" d="M13.94 45.91h-.06v-3.19H8.8v2.47h2.86v9.27h-2.8v2.47h8.7v-2.47h-3.08V50.4c0-3.25 1-5.09 4.27-5.09h1.5v-2.83h-1.83a4.81 4.81 0 0 0-4.48 3.43ZM28.34 42.3a7.47 7.47 0 0 0-7.46 7.52c0 4.39 3.31 7.52 7.91 7.52a8.2 8.2 0 0 0 7.13-3.7l-2.47-1.08a5.54 5.54 0 0 1-4.6 2.32A4.68 4.68 0 0 1 24 50.52h11.92c0-5.21-3.64-8.22-7.58-8.22Zm-4.27 6.17a4.37 4.37 0 0 1 4.33-3.91 4.84 4.84 0 0 1 4.66 3.91h-9ZM45.53 57.35a8.2 8.2 0 0 0 7.13-3.7l-2.47-1.08a5.54 5.54 0 0 1-4.6 2.32 4.68 4.68 0 0 1-4.87-4.36h11.94c0-5.21-3.64-8.21-7.58-8.21a7.47 7.47 0 0 0-7.46 7.52c-.01 4.38 3.3 7.51 7.91 7.51Zm-.39-12.79a4.84 4.84 0 0 1 4.66 3.91h-9a4.37 4.37 0 0 1 4.34-3.91ZM126.1 53.32h3.61v3.61h-3.61zM138.95 42.3a7.52 7.52 0 1 0 7.46 7.52 7.32 7.32 0 0 0-7.46-7.52Zm0 12.34a4.53 4.53 0 0 1-4.45-4.81 4.48 4.48 0 1 1 8.94 0 4.54 4.54 0 0 1-4.52 4.81ZM152.61 45.91h-.06v-3.19h-5.09v2.47h2.86v9.27h-2.8v2.47h8.7v-2.47h-3.07V50.4c0-3.25 1-5.09 4.27-5.09h1.5v-2.83h-1.84a4.81 4.81 0 0 0-4.47 3.43ZM171.58 44.74a6.83 6.83 0 0 0-5-2.26c-4 0-7 3.28-7 7.55s2.92 7.31 6.92 7.31a6.69 6.69 0 0 0 5.02-2.34h.06v2.14c0 3.13-2.83 4-4.57 4a6.3 6.3 0 0 1-4-1.47l-1.81 2a8.58 8.58 0 0 0 5.6 1.9c3.19 0 7.61-1.5 7.61-6.59V45.19h2.56v-2.47h-5.36v2ZM167 54.88c-2.62 0-4.45-2-4.45-4.9A4.58 4.58 0 0 1 167 45.1a4.9 4.9 0 0 1 0 9.78ZM10.81 22.47C15.34 18.09 20.7 16.06 27 17a32.65 32.65 0 0 1 14.47 6.32c3 2.15 5.76 4.59 8.63 6.89l-.3.48c-.87-.24-1.73-.51-2.6-.72-1.61-.38-2.19.76-2.64 1.93-.53 1.38.79 1.33 1.45 1.55 2.66.89 5.33 1.74 8 2.42 1 .26 2.75.42 3.15-.13A5.66 5.66 0 0 0 58 32a38.89 38.89 0 0 0-1.31-5.51c-.53-2-1.09-4.08-1.71-6.4-3.52 2.5-.38 5.52-1.26 8.15l-1.1-.93c-2.73-2.25-5.37-4.63-8.22-6.73a37.52 37.52 0 0 0-16.2-6.88h-3.69c-.65.14-1.31.31-2 .43-5.05.92-11.22 5.4-12.73 9.4a14.52 14.52 0 0 0 1.03-1.06Z"/><path fill="#34b233" d="M16.71 8.31c.79-.31 1.08-3.52.63-4.66a2.29 2.29 0 1 0-4.27 1.68c.45 1.14 2.85 3.29 3.64 2.98ZM9 14c.6-.6-.41-3.66-1.28-4.53a2.29 2.29 0 1 0-3.24 3.24C5.37 13.59 8.43 14.6 9 14ZM35.65 8.31c.79.31 3.19-1.84 3.64-3A2.29 2.29 0 1 0 35 3.65c-.43 1.14-.14 4.35.65 4.66ZM47.85 12.72a2.29 2.29 0 1 0-3.25-3.24c-.87.87-1.88 3.93-1.28 4.53s3.68-.42 4.53-1.29ZM26.18 6.42c.85 0 2.29-2.88 2.29-4.1a2.29 2.29 0 1 0-4.59 0c0 1.22 1.45 4.1 2.3 4.1Z" style="opacity:.6"/><path fill="#34b233" d="M182 37.25a1.1 1.1 0 0 0-1.28-1.07h-1.45v3.25h.73v-1h.57l.69 1h.84l-.79-1.17a1 1 0 0 0 .69-1.01Zm-1.28.52H180v-1h.7a.48.48 0 1 1-.02.99Z"/><path fill="#34b233" d="M180.51 34.83a3.06 3.06 0 1 0 3.05 3.05 3.07 3.07 0 0 0-3.05-3.05Zm0 5.78a2.72 2.72 0 1 1 2.71-2.73 2.67 2.67 0 0 1-2.72 2.73Z"/></svg>