<svg width="450" height="91" viewBox="0 0 450 91" fill="none" xmlns="http://www.w3.org/2000/svg">
<path d="M3.834 71L2.982 65.107L7.455 64.184V28.4L3.053 27.903V21.939H34.79L36.139 36.139H31.098L28.116 28.968H16.046V42.387H26.98V49.345H16.046V63.9L27.974 65.675L27.477 71H3.834ZM40.1494 71L39.1554 66.669L43.4154 65.533V42.387L39.7944 42.6L39.0134 37.985L48.4564 36.281L50.7284 39.831C51.7224 38.695 52.8584 37.8193 54.1364 37.204C55.4617 36.5887 56.7397 36.281 57.9704 36.281C60.0531 36.281 61.8991 36.778 63.5084 37.772C65.1651 38.7187 66.3247 40.186 66.9874 42.174L58.9644 46.363L56.7634 42.884C56.1481 42.884 55.4144 43.1207 54.5624 43.594C53.7104 44.0673 52.9531 44.872 52.2904 46.008C51.6751 47.0967 51.3674 48.564 51.3674 50.41V64.397L60.1714 66.669L60.2424 71H40.1494ZM84.8095 71.284C82.0168 71.284 79.3898 70.645 76.9285 69.367C74.5145 68.0417 72.5502 66.101 71.0355 63.545C69.5682 60.989 68.8345 57.8413 68.8345 54.102C68.8345 50.0787 69.5918 46.7653 71.1065 44.162C72.6212 41.5113 74.5855 39.547 76.9995 38.269C79.4135 36.9437 81.9222 36.281 84.5255 36.281C86.5135 36.281 88.4068 36.636 90.2055 37.346C92.0042 38.0087 93.4715 39.0737 94.6075 40.541C95.7908 41.961 96.3825 43.7597 96.3825 45.937C96.3825 48.0197 95.9328 49.771 95.0335 51.191C94.1815 52.611 92.9745 53.7707 91.4125 54.67C89.8978 55.5693 88.1702 56.232 86.2295 56.658C84.3362 57.0367 82.3482 57.2023 80.2655 57.155L77.1415 57.084C77.4255 59.3087 78.2538 61.1783 79.6265 62.693C80.9992 64.2077 83.1528 64.965 86.0875 64.965C88.1702 64.965 89.8742 64.5863 91.1995 63.829C92.5722 63.0717 93.6845 62.2907 94.5365 61.486L96.1695 67.237C95.6488 67.8523 94.8442 68.4677 93.7555 69.083C92.6668 69.6983 91.3652 70.219 89.8505 70.645C88.3358 71.071 86.6555 71.284 84.8095 71.284ZM77.1415 51.404L79.3425 51.475C80.2892 51.5223 81.2832 51.475 82.3245 51.333C83.3658 51.1437 84.3362 50.8597 85.2355 50.481C86.1822 50.1023 86.9158 49.558 87.4365 48.848C88.0045 48.138 88.2885 47.2387 88.2885 46.15C88.2885 44.9667 87.9335 44.091 87.2235 43.523C86.5135 42.9077 85.6378 42.6 84.5965 42.6C83.3185 42.6 82.1352 43.0023 81.0465 43.807C79.9578 44.6117 79.0585 45.6767 78.3485 47.002C77.6858 48.3273 77.2835 49.7947 77.1415 51.404ZM116.912 71.284C114.119 71.284 111.492 70.645 109.031 69.367C106.617 68.0417 104.653 66.101 103.138 63.545C101.671 60.989 100.937 57.8413 100.937 54.102C100.937 50.0787 101.694 46.7653 103.209 44.162C104.724 41.5113 106.688 39.547 109.102 38.269C111.516 36.9437 114.025 36.281 116.628 36.281C118.616 36.281 120.509 36.636 122.308 37.346C124.107 38.0087 125.574 39.0737 126.71 40.541C127.893 41.961 128.485 43.7597 128.485 45.937C128.485 48.0197 128.035 49.771 127.136 51.191C126.284 52.611 125.077 53.7707 123.515 54.67C122 55.5693 120.273 56.232 118.332 56.658C116.439 57.0367 114.451 57.2023 112.368 57.155L109.244 57.084C109.528 59.3087 110.356 61.1783 111.729 62.693C113.102 64.2077 115.255 64.965 118.19 64.965C120.273 64.965 121.977 64.5863 123.302 63.829C124.675 63.0717 125.787 62.2907 126.639 61.486L128.272 67.237C127.751 67.8523 126.947 68.4677 125.858 69.083C124.769 69.6983 123.468 70.219 121.953 70.645C120.438 71.071 118.758 71.284 116.912 71.284ZM109.244 51.404L111.445 51.475C112.392 51.5223 113.386 51.475 114.427 51.333C115.468 51.1437 116.439 50.8597 117.338 50.481C118.285 50.1023 119.018 49.558 119.539 48.848C120.107 48.138 120.391 47.2387 120.391 46.15C120.391 44.9667 120.036 44.091 119.326 43.523C118.616 42.9077 117.74 42.6 116.699 42.6C115.421 42.6 114.238 43.0023 113.149 43.807C112.06 44.6117 111.161 45.6767 110.451 47.002C109.788 48.3273 109.386 49.7947 109.244 51.404ZM148.447 71.284C146.506 71.284 144.613 70.9527 142.767 70.29C140.921 69.58 139.264 68.5387 137.797 67.166C136.377 65.746 135.217 63.9947 134.318 61.912C133.466 59.782 133.04 57.297 133.04 54.457C133.04 51.0963 133.466 48.2563 134.318 45.937C135.217 43.6177 136.4 41.748 137.868 40.328C139.335 38.908 140.968 37.8903 142.767 37.275C144.613 36.6123 146.482 36.281 148.376 36.281C150.316 36.281 151.949 36.5177 153.275 36.991C154.647 37.4643 155.783 38.056 156.683 38.766C157.629 39.4287 158.339 40.0677 158.813 40.683C159.333 41.2983 159.688 41.748 159.878 42.032L152.139 46.647L148.944 42.529H148.021C146.979 42.529 146.033 42.813 145.181 43.381C144.329 43.949 143.595 44.7773 142.98 45.866C142.412 46.9073 141.962 48.138 141.631 49.558C141.347 50.978 141.205 52.5163 141.205 54.173C141.205 56.0663 141.489 57.8413 142.057 59.498C142.625 61.1073 143.524 62.4327 144.755 63.474C146.033 64.468 147.713 64.965 149.796 64.965C151.121 64.965 152.281 64.7757 153.275 64.397C154.269 64.0183 155.121 63.5923 155.831 63.119C156.588 62.5983 157.203 62.1487 157.677 61.77L159.381 67.521C158.103 68.799 156.493 69.7457 154.553 70.361C152.659 70.9763 150.624 71.284 148.447 71.284ZM171.149 90.454C170.203 90.454 168.925 90.2173 167.315 89.744C165.753 89.318 164.286 88.4897 162.913 87.259L166.463 81.721C166.937 82.005 167.576 82.4783 168.38 83.141C169.232 83.851 169.99 84.206 170.652 84.206C171.268 84.206 171.788 84.0167 172.214 83.638C172.64 83.3067 173.043 82.786 173.421 82.076C173.8 81.4133 174.179 80.585 174.557 79.591L176.119 75.189L164.333 41.89H161.635L161.067 37.062L171.149 36.281L180.45 63.261L188.118 41.89H184.994L184.426 36.991L194.224 36.281L195.573 38.837C195.337 39.4523 194.911 40.5883 194.295 42.245C193.727 43.9017 193.017 45.9133 192.165 48.28C191.361 50.5993 190.485 53.108 189.538 55.806C188.639 58.504 187.692 61.2257 186.698 63.971C185.752 66.669 184.829 69.2487 183.929 71.71C183.03 74.2187 182.249 76.396 181.586 78.242C180.924 80.1353 180.403 81.579 180.024 82.573C179.125 84.7977 178.155 86.478 177.113 87.614C176.072 88.75 175.031 89.5073 173.989 89.886C172.948 90.2647 172.001 90.454 171.149 90.454ZM213.553 71.284C211.612 71.284 209.719 70.9527 207.873 70.29C206.027 69.58 204.37 68.5387 202.903 67.166C201.483 65.746 200.323 63.9947 199.424 61.912C198.572 59.782 198.146 57.297 198.146 54.457C198.146 51.0963 198.572 48.2563 199.424 45.937C200.323 43.6177 201.507 41.748 202.974 40.328C204.441 38.908 206.074 37.8903 207.873 37.275C209.719 36.6123 211.589 36.281 213.482 36.281C215.423 36.281 217.056 36.5177 218.381 36.991C219.754 37.4643 220.89 38.056 221.789 38.766C222.736 39.4287 223.446 40.0677 223.919 40.683C224.44 41.2983 224.795 41.748 224.984 42.032L217.245 46.647L214.05 42.529H213.127C212.086 42.529 211.139 42.813 210.287 43.381C209.435 43.949 208.701 44.7773 208.086 45.866C207.518 46.9073 207.068 48.138 206.737 49.558C206.453 50.978 206.311 52.5163 206.311 54.173C206.311 56.0663 206.595 57.8413 207.163 59.498C207.731 61.1073 208.63 62.4327 209.861 63.474C211.139 64.468 212.819 64.965 214.902 64.965C216.227 64.965 217.387 64.7757 218.381 64.397C219.375 64.0183 220.227 63.5923 220.937 63.119C221.694 62.5983 222.31 62.1487 222.783 61.77L224.487 67.521C223.209 68.799 221.6 69.7457 219.659 70.361C217.766 70.9763 215.73 71.284 213.553 71.284ZM228.517 71L227.807 66.74L231.925 65.746V24.85H228.162L227.381 20.235L237.392 18.815L239.806 21.3V65.604L244.421 66.74V71H228.517ZM248.918 71L248.208 66.669L252.184 65.746V42.529L248.563 42.6L247.782 37.914L257.793 36.21L260.136 38.695V65.888L264.112 66.669V71H248.918ZM256.018 33.228C254.835 33.228 253.817 32.802 252.965 31.95C252.161 31.098 251.758 30.104 251.758 28.968C251.758 27.7847 252.161 26.7907 252.965 25.986C253.817 25.134 254.835 24.708 256.018 24.708C257.202 24.708 258.196 25.134 259 25.986C259.852 26.7907 260.278 27.7847 260.278 28.968C260.278 30.104 259.852 31.098 259 31.95C258.196 32.802 257.202 33.228 256.018 33.228ZM268.956 71L268.246 66.669L272.222 65.746V42.529H268.601L267.82 37.914L277.76 36.21L280.103 38.837C281.097 38.1743 282.352 37.5827 283.866 37.062C285.381 36.5413 286.919 36.281 288.481 36.281C290.469 36.281 292.268 36.636 293.877 37.346C295.534 38.0087 296.836 39.05 297.782 40.47C298.776 41.8427 299.273 43.6177 299.273 45.795V65.959L303.249 66.669L303.178 71H287.7L287.629 66.669L291.321 65.888V47.57C291.321 45.9133 290.895 44.7063 290.043 43.949C289.239 43.1443 288.103 42.742 286.635 42.742C285.263 42.742 283.937 43.0733 282.659 43.736C281.429 44.3987 280.6 44.9667 280.174 45.44V65.888L284.292 66.74L284.221 71H268.956ZM319.65 90.241C316.952 90.241 314.561 89.7677 312.479 88.821C310.396 87.9217 308.787 86.6673 307.651 85.058C306.515 83.4487 305.947 81.6027 305.947 79.52C305.947 77.248 306.491 75.3547 307.58 73.84C308.716 72.3727 310.041 71.1893 311.556 70.29C311.035 69.722 310.609 69.0593 310.278 68.302C309.946 67.5447 309.781 66.669 309.781 65.675C309.781 64.4917 310.017 63.4267 310.491 62.48C311.011 61.486 311.65 60.634 312.408 59.924C310.798 58.8827 309.473 57.51 308.432 55.806C307.39 54.0547 306.87 51.972 306.87 49.558C306.87 46.718 307.532 44.3277 308.858 42.387C310.23 40.399 311.982 38.8843 314.112 37.843C316.242 36.8017 318.466 36.281 320.786 36.281C322.442 36.281 324.052 36.5413 325.614 37.062C327.176 37.5827 328.596 38.34 329.874 39.334L337.4 35.5L338.962 35.713L339.743 42.387L333.211 43.168C333.684 44.0673 334.063 45.0613 334.347 46.15C334.631 47.1913 334.773 48.3273 334.773 49.558C334.773 52.3033 334.086 54.6227 332.714 56.516C331.388 58.4093 329.661 59.853 327.531 60.847C325.448 61.7937 323.2 62.267 320.786 62.267C320.407 62.267 320.028 62.267 319.65 62.267C319.318 62.267 318.987 62.2197 318.656 62.125L317.307 64.113L317.52 65.178L324.762 66.74C327.176 67.2607 329.211 67.9707 330.868 68.87C332.572 69.7693 333.85 70.858 334.702 72.136C335.554 73.4613 335.98 75.047 335.98 76.893C335.98 79.733 335.222 82.147 333.708 84.135C332.24 86.123 330.276 87.6377 327.815 88.679C325.353 89.7203 322.632 90.241 319.65 90.241ZM321.354 82.36C322.726 82.36 324.028 82.1707 325.259 81.792C326.489 81.4607 327.507 80.9637 328.312 80.301C329.164 79.6383 329.59 78.881 329.59 78.029C329.59 77.177 329.187 76.5143 328.383 76.041C327.578 75.615 326.513 75.2363 325.188 74.905C323.91 74.621 322.49 74.337 320.928 74.053C319.413 73.769 317.946 73.414 316.526 72.988C315.39 73.6033 314.538 74.3133 313.97 75.118C313.449 75.9227 313.189 76.7983 313.189 77.745C313.189 78.5023 313.473 79.236 314.041 79.946C314.609 80.656 315.484 81.224 316.668 81.65C317.851 82.1233 319.413 82.36 321.354 82.36ZM320.786 56.019C322.774 56.019 324.241 55.3563 325.188 54.031C326.134 52.6583 326.608 51.049 326.608 49.203C326.608 47.4517 326.134 45.9133 325.188 44.588C324.241 43.2153 322.774 42.529 320.786 42.529C318.845 42.529 317.401 43.2153 316.455 44.588C315.508 45.9133 315.035 47.4517 315.035 49.203C315.035 51.049 315.508 52.6583 316.455 54.031C317.401 55.3563 318.845 56.019 320.786 56.019ZM346.3 71.284C345.022 71.284 343.933 70.8343 343.034 69.935C342.134 69.0357 341.685 67.947 341.685 66.669C341.685 65.391 342.134 64.326 343.034 63.474C343.933 62.5747 345.022 62.125 346.3 62.125C347.578 62.125 348.643 62.5747 349.495 63.474C350.394 64.326 350.844 65.391 350.844 66.669C350.844 67.947 350.394 69.0357 349.495 69.935C348.643 70.8343 347.578 71.284 346.3 71.284Z" fill="#CDA434"/>
<path d="M427.714 4.56C430.351 1.52 433.694 0 437.743 0C441.123 0 443.946 1.22341 446.286 3.70732C448.626 6.19122 449.851 9.00878 450 12.2341C450 14.8293 448.774 17.8322 446.286 21.3541C443.797 24.8761 441.383 27.8049 438.969 30.2146C436.554 32.5873 432.803 36.1093 427.714 40.7805C422.551 36.1093 418.763 32.5873 416.349 30.2146C413.934 27.842 411.483 24.8761 409.031 21.3541C406.58 17.8322 405.429 14.8293 405.429 12.2341C405.429 8.86049 406.617 6.04293 409.031 3.70732C411.446 1.37171 414.343 0.148293 417.723 0C421.697 0 425.003 1.52 427.714 4.56ZM450 63.0244V66.7317L420.286 76L394.286 68.8078V74.1463H372V33.3659H401.603L424.483 41.8927C428.643 43.4498 431.429 47.4537 431.429 51.9024H438.857C445.023 51.9024 450 56.8702 450 63.0244ZM386.857 66.7317V40.7805H379.429V66.7317H386.857ZM442.2 61.4302C441.606 60.2068 440.306 59.3171 438.857 59.3171H418.986C416.98 59.3171 415.011 59.0205 413.117 58.3902L404.277 55.4615L406.617 48.4176L415.457 51.3463C416.571 51.7171 424 51.9024 424 51.9024C424 50.5307 423.146 49.3073 421.883 48.8254L400.266 40.7805H394.286V61.1707L420.174 68.2517L442.2 61.4302Z" fill="#CDA434"/>
</svg>
